<?xml version="1.0" standalone="no"?>
<!DOCTYPE svg PUBLIC "-//W3C//DTD SVG 20010904//EN"
 "http://www.w3.org/TR/2001/REC-SVG-20010904/DTD/svg10.dtd">
<svg version="1.0" xmlns="http://www.w3.org/2000/svg"
 width="512.000000pt" height="512.000000pt" viewBox="0 0 512.000000 512.000000"
 preserveAspectRatio="xMidYMid meet">

<g transform="translate(0.000000,512.000000) scale(0.100000,-0.100000)"
fill="#999999" stroke="none">
<path d="M1760 4947 c-49 -16 -133 -102 -148 -153 -9 -32 -12 -444 -12 -1777
l0 -1736 -429 -3 c-416 -3 -430 -4 -457 -24 -64 -47 -69 -61 -75 -237 -5 -161
-6 -164 -82 -464 -42 -166 -77 -312 -77 -323 0 -12 11 -32 25 -45 l24 -25
1911 0 1911 0 24 25 c25 24 25 27 25 197 0 140 11 274 56 708 l57 535 39 34
c21 18 49 52 61 75 22 40 22 48 22 401 l0 360 -28 57 c-33 68 -93 122 -159
146 l-48 17 0 76 c0 554 -491 969 -1035 874 -358 -63 -647 -352 -710 -710 -10
-58 -15 -153 -15 -281 l0 -194 -175 0 c-239 0 -225 15 -225 -240 0 -189 0
-191 25 -215 13 -14 33 -25 45 -25 11 0 20 -6 20 -12 0 -7 16 -161 35 -342 19
-180 35 -337 35 -347 0 -18 -10 -19 -160 -19 l-160 0 0 1736 c0 1313 -3 1746
-12 1776 -17 59 -88 133 -145 152 -53 18 -112 19 -163 3z m135 -172 l25 -24 0
-1736 0 -1735 -80 0 -80 0 0 1735 0 1736 25 24 c15 16 36 25 55 25 19 0 40 -9
55 -25z m1837 -1288 c117 -37 203 -90 294 -181 136 -136 201 -282 211 -478 l6
-107 -409 -3 -409 -3 -57 -28 c-68 -33 -122 -93 -146 -159 l-17 -48 -203 0
-204 0 4 228 c4 210 7 233 30 304 39 119 92 204 182 294 110 110 236 177 381
204 86 16 251 5 337 -23z m676 -947 c18 -11 41 -34 52 -52 19 -31 20 -51 20
-345 0 -330 -3 -352 -47 -372 -37 -17 -62 -13 -88 14 -25 24 -25 27 -25 200
l0 175 -80 0 -80 0 0 -175 c0 -173 0 -176 -25 -200 -32 -33 -78 -33 -110 0
-25 24 -25 27 -25 200 l0 175 -80 0 -80 0 0 -175 c0 -173 0 -176 -25 -200 -32
-33 -78 -33 -110 0 -25 24 -25 27 -25 200 l0 175 -80 0 -80 0 0 -175 c0 -173
0 -176 -25 -200 -26 -27 -70 -32 -96 -12 -37 28 -39 50 -39 369 0 295 1 315
20 346 11 18 34 41 52 52 32 19 52 20 488 20 436 0 456 -1 488 -20z m-1208
-300 l0 -80 -400 0 -400 0 0 80 0 80 400 0 400 0 0 -80z m2 -352 c3 -90 8
-121 25 -153 69 -131 229 -174 346 -93 27 19 27 19 55 0 79 -55 185 -55 265 0
27 19 27 19 55 0 15 -10 42 -24 61 -30 66 -23 144 -11 204 30 27 19 27 19 55
-1 16 -11 40 -23 55 -26 15 -4 27 -8 27 -9 0 0 -23 -212 -50 -471 -27 -259
-50 -476 -50 -482 0 -10 -121 -13 -574 -13 l-574 0 -28 108 c-23 88 -29 136
-33 268 -6 158 -7 161 -35 198 -45 59 -72 66 -269 66 l-173 0 -33 318 c-18
174 -35 336 -38 360 l-6 42 356 0 355 0 4 -112z m-322 -848 l0 -80 -1040 0
-1040 0 0 80 0 80 1040 0 1040 0 0 -80z m-2002 -480 l-60 -240 -78 0 -78 0 60
240 60 240 78 0 78 0 -60 -240z m320 0 l-60 -240 -78 0 -78 0 60 240 60 240
78 0 78 0 -60 -240z m387 208 c-5 -34 -55 -430 -55 -441 0 -4 -51 -7 -114 -7
l-114 0 60 240 60 240 85 0 84 0 -6 -32z m345 25 c0 -11 50 -407 55 -440 l6
-33 -151 0 -151 0 6 33 c5 33 55 429 55 440 0 4 41 7 90 7 50 0 90 -3 90 -7z
m388 -233 l60 -240 -114 0 c-63 0 -114 3 -114 7 0 11 -50 407 -55 441 l-6 32
84 0 85 0 60 -240z m320 0 l60 -240 -78 0 -78 0 -60 240 -60 240 78 0 78 0 60
-240z m320 0 l60 -240 -78 0 -78 0 -60 240 -60 240 78 0 78 0 60 -240z m1282
-160 l0 -80 -529 0 -529 0 -20 80 -20 80 549 0 549 0 0 -80z"/>
<path d="M3920 1440 l0 -80 80 0 80 0 0 80 0 80 -80 0 -80 0 0 -80z"/>
<path d="M3920 1000 l0 -200 80 0 80 0 0 200 0 200 -80 0 -80 0 0 -200z"/>
<path d="M4518 4070 c-9 -6 -33 -44 -53 -85 -46 -97 -112 -162 -212 -212 -59
-29 -80 -45 -87 -65 -18 -52 1 -79 87 -121 100 -50 164 -114 214 -214 29 -59
45 -80 66 -87 51 -18 78 1 120 87 49 99 116 165 216 214 57 29 78 45 85 66 18
51 -2 78 -85 120 -100 49 -168 117 -215 212 -19 41 -44 80 -54 85 -23 13 -60
12 -82 0z m109 -320 l70 -70 -69 -68 -68 -69 -68 69 -69 68 66 69 c36 37 66
69 67 70 0 0 32 -30 71 -69z"/>
<path d="M998 3110 c-9 -6 -33 -44 -53 -85 -46 -97 -112 -162 -212 -212 -86
-42 -105 -69 -87 -120 7 -21 28 -37 87 -66 100 -50 164 -114 214 -214 29 -59
45 -80 66 -87 51 -18 78 1 120 87 49 99 116 165 216 214 83 42 103 69 85 121
-7 20 -28 36 -85 65 -100 49 -168 117 -215 212 -19 41 -44 80 -54 85 -23 13
-60 12 -82 0z m109 -320 l70 -70 -69 -68 -68 -69 -68 69 -69 68 66 69 c36 37
66 69 67 70 0 0 32 -30 71 -69z"/>
<path d="M518 2150 c-9 -6 -33 -44 -53 -85 -46 -97 -112 -162 -212 -212 -86
-42 -105 -69 -87 -120 7 -21 28 -37 87 -66 46 -23 98 -59 127 -87 28 -29 64
-81 87 -127 29 -59 45 -80 66 -87 51 -18 78 1 120 87 49 99 116 165 216 214
83 42 103 69 85 121 -7 20 -28 36 -85 65 -100 49 -168 117 -215 212 -19 41
-44 80 -54 85 -23 13 -60 12 -82 0z m109 -320 l70 -70 -69 -68 -68 -69 -68 69
-69 68 66 69 c36 37 66 69 67 70 0 0 32 -30 71 -69z"/>
</g>
</svg>
